<svg width="28" height="34" viewBox="0 0 28 34" fill="none" xmlns="http://www.w3.org/2000/svg">
<path d="M18.7652 0.0314981C19.025 0.169063 19.2443 0.355911 19.4691 0.543435C19.5542 0.61306 19.6393 0.682632 19.7244 0.752159C19.9115 0.905532 20.0979 1.05973 20.284 1.21435C20.5227 1.41197 20.7645 1.60488 21.0089 1.79528C21.3308 2.04607 21.6487 2.30116 21.9648 2.55918C22.289 2.82375 22.6151 3.08538 22.9447 3.34309C23.0527 3.42785 23.1607 3.51266 23.2687 3.59749C23.3379 3.6518 23.4072 3.706 23.4766 3.7601C23.5743 3.83655 23.6715 3.91376 23.7686 3.99101C23.8236 4.0344 23.8786 4.07779 23.9353 4.12249C24.1396 4.31414 24.2551 4.48469 24.2965 4.76291C24.2295 5.2323 23.8586 5.49259 23.5086 5.77079C23.4602 5.80992 23.4119 5.84906 23.362 5.88938C23.0318 6.15572 22.6987 6.41849 22.3642 6.67934C22.0787 6.90212 21.7974 7.12962 21.5169 7.35859C21.1639 7.64669 20.8081 7.93072 20.4488 8.21086C20.2429 8.37181 20.0391 8.5349 19.8369 8.70042C19.7909 8.738 19.745 8.77557 19.6977 8.81428C19.6089 8.88717 19.5203 8.96023 19.4318 9.03351C19.0706 9.32999 18.8094 9.54083 18.3273 9.52557C18.1212 9.49085 18.0102 9.39597 17.8694 9.24635C17.7934 9.09444 17.7976 9.00303 17.7981 8.83362C17.7981 8.7747 17.7981 8.71578 17.7981 8.65507C17.7984 8.59134 17.7988 8.52761 17.7991 8.46195C17.7993 8.36422 17.7992 8.36422 17.7994 8.26451C17.7997 8.05585 17.8006 7.84721 17.8014 7.63855C17.8017 7.49732 17.802 7.35609 17.8022 7.21486C17.8029 6.86815 17.804 6.52144 17.8054 6.17474C16.4892 6.17712 15.173 6.18096 13.8569 6.1865C13.2456 6.18904 12.6344 6.19112 12.0232 6.19208C11.49 6.19291 10.9568 6.19465 10.4236 6.19743C10.1417 6.19887 9.85979 6.19988 9.57788 6.19981C9.31162 6.19976 9.0454 6.20093 8.77915 6.20297C8.6823 6.2035 8.58545 6.20363 8.4886 6.20326C7.60614 6.2004 6.71706 6.32649 5.91891 6.72667C5.8744 6.74842 5.82989 6.77017 5.78404 6.79258C4.46196 7.46476 3.5616 8.62184 3.08728 10.0143C2.70723 11.2387 2.82836 12.5372 3.29525 13.7178C3.46148 14.1525 3.49765 14.5921 3.30725 15.0256C3.09424 15.3935 2.78508 15.6402 2.38337 15.7735C1.87241 15.8481 1.46108 15.751 1.03955 15.4536C0.151292 14.5451 -0.00288506 12.7228 4.0403e-05 11.5135C0.0348257 9.25519 0.940637 7.25803 2.51135 5.6628C2.56357 5.60902 2.61579 5.55523 2.66958 5.49982C3.4756 4.71747 4.46733 4.18063 5.51896 3.80703C5.62067 3.76892 5.62067 3.76892 5.72444 3.73004C7.05689 3.27104 8.48374 3.33254 9.87258 3.33962C10.1524 3.34084 10.4321 3.34093 10.7119 3.34116C11.2395 3.34175 11.767 3.34332 12.2946 3.34526C12.8961 3.34742 13.4977 3.34846 14.0993 3.34942C15.3346 3.35142 16.57 3.35479 17.8054 3.35908C17.8048 3.32292 17.8042 3.28675 17.8036 3.24949C17.798 2.87267 17.7941 2.49586 17.7913 2.119C17.79 1.97841 17.7883 1.83782 17.7861 1.69724C17.7829 1.49503 17.7815 1.29285 17.7804 1.09062C17.779 1.02788 17.7777 0.965143 17.7764 0.900504C17.7763 0.619727 17.7775 0.460915 17.9269 0.217272C18.1789 -0.0110599 18.4378 -0.033014 18.7652 0.0314981Z" fill="#FEFEFE"/>
<path d="M26.0843 10.2742C26.6972 10.626 26.8913 11.2891 27.0842 11.9339C27.6639 14.1549 27.4678 16.4538 26.3225 18.4712C25.1891 20.3736 23.3668 21.7495 21.2327 22.3233C20.027 22.6281 18.7807 22.5824 17.5472 22.5761C17.2675 22.5749 16.9877 22.5748 16.7079 22.5745C16.1803 22.574 15.6528 22.5724 15.1252 22.5705C14.5237 22.5683 13.9221 22.5672 13.3206 22.5663C12.0852 22.5643 10.8498 22.5609 9.61445 22.5566C9.61502 22.5928 9.61558 22.629 9.61617 22.6662C9.62184 23.043 9.6257 23.4199 9.62851 23.7967C9.62979 23.9373 9.63154 24.0779 9.63376 24.2185C9.63687 24.4207 9.63832 24.6229 9.63944 24.8251C9.64077 24.8878 9.64209 24.9506 9.64345 25.0152C9.64354 25.296 9.64233 25.4548 9.4929 25.6984C9.28163 25.8898 9.10805 25.9229 8.8208 25.917C8.47092 25.848 8.21792 25.5952 7.95066 25.3723C7.86563 25.3026 7.78056 25.2331 7.69545 25.1635C7.50831 25.0102 7.32188 24.856 7.13577 24.7014C6.89713 24.5037 6.65528 24.3108 6.41086 24.1204C6.08902 23.8696 5.77107 23.6145 5.45499 23.3565C5.13084 23.092 4.80474 22.8303 4.47512 22.5726C4.36708 22.4879 4.25907 22.4031 4.15109 22.3182C4.08189 22.2639 4.01261 22.2097 3.94325 22.1556C3.8455 22.0792 3.74835 22.0019 3.65122 21.9247C3.56869 21.8596 3.56869 21.8596 3.48449 21.7932C3.28019 21.6016 3.16473 21.431 3.12329 21.1528C3.19035 20.6834 3.56125 20.4231 3.91119 20.1449C3.95956 20.1058 4.00794 20.0667 4.05778 20.0263C4.38799 19.76 4.72108 19.4972 5.05563 19.2364C5.34108 19.0136 5.62243 18.7861 5.90293 18.5571C6.25594 18.269 6.61167 17.985 6.97103 17.7049C7.17689 17.5439 7.38074 17.3808 7.58296 17.2153C7.62887 17.1777 7.67477 17.1401 7.72207 17.1014C7.81088 17.0285 7.89954 16.9555 7.98803 16.8822C8.34918 16.5857 8.61044 16.3749 9.09251 16.3901C9.29859 16.4249 9.40964 16.5197 9.55046 16.6694C9.62641 16.8213 9.62217 16.9127 9.62171 17.0821C9.6217 17.1705 9.62171 17.1705 9.6217 17.2606C9.62137 17.3244 9.62104 17.3881 9.6207 17.4538C9.62061 17.5189 9.62051 17.5841 9.62042 17.6512C9.62006 17.8599 9.61926 18.0685 9.61845 18.2772C9.61813 18.4184 9.61783 18.5596 9.61757 18.7009C9.61687 19.0476 9.61579 19.3943 9.61445 19.741C10.9306 19.7386 12.2468 19.7347 13.563 19.7292C14.1742 19.7267 14.7854 19.7246 15.3966 19.7236C15.9298 19.7228 16.463 19.7211 16.9962 19.7183C17.2781 19.7168 17.56 19.7158 17.8419 19.7159C18.1082 19.7159 18.3744 19.7148 18.6407 19.7127C18.7375 19.7122 18.8344 19.7121 18.9312 19.7124C19.8137 19.7153 20.7027 19.5892 21.5009 19.189C21.5454 19.1673 21.5899 19.1455 21.6358 19.1231C22.9579 18.4509 23.8582 17.2939 24.3325 15.9015C24.7126 14.677 24.5915 13.3785 24.1246 12.1979C23.9583 11.7632 23.9222 11.3236 24.1126 10.8901C24.5309 10.1676 25.3278 9.93037 26.0843 10.2742Z" fill="#FEFEFE"/>
<circle cx="14.5" cy="31.5" r="2.5" fill="#FEFEFE"/>
</svg>
